<svg xmlns="http://www.w3.org/2000/svg" viewBox="0 0 1000 1000">
  <rect x="0" y="0" width="1000" height="1000" fill="white"/>
  <path d="M 832.24 551.07 L 798.60 551.07 L 797.40 549.87 L 781.78 549.87 L 780.57 548.66 L 757.74 548.66 L 756.54 547.46 L 752.94 548.66 L 716.89 548.66 L 715.69 549.87 L 704.87 549.87 L 703.67 551.07 L 690.45 551.07 L 689.25 552.27 L 670.03 553.47 L 668.83 554.67 L 652.00 555.87 L 650.80 557.08 L 639.99 557.08 L 638.79 558.28 L 615.95 560.68 L 614.75 561.88 L 608.74 561.88 L 607.54 563.08 L 590.72 564.29 L 583.51 566.69 L 571.50 567.89 L 565.49 570.29 L 557.08 570.29 L 551.07 572.70 L 535.45 575.10 L 524.63 578.70 L 519.83 578.70 L 504.21 583.51 L 499.40 583.51 L 483.78 588.32 L 465.75 591.92 L 457.34 595.53 L 453.74 595.53 L 448.93 597.93 L 445.33 597.93 L 427.30 603.94 L 423.70 603.94 L 411.68 608.74 L 408.08 608.74 L 397.26 613.55 L 358.81 625.57 L 355.21 627.97 L 349.20 629.17 L 339.59 633.98 L 331.17 636.38 L 325.17 639.99 L 322.76 639.99 L 295.13 653.20 L 285.51 660.41 L 285.51 664.02 L 290.32 670.03 L 296.33 672.43 L 298.73 674.83 L 339.59 694.06 L 356.41 682.04 L 369.63 682.04 L 351.60 680.84 L 350.40 679.64 L 351.60 678.44 L 364.82 678.44 L 355.21 678.44 L 350.40 676.03 L 351.60 674.83 L 355.21 674.83 L 356.41 676.03 L 358.81 674.83 L 367.22 674.83 L 366.02 673.63 L 354.01 673.63 L 352.80 672.43 L 354.01 671.23 L 369.63 671.23 L 370.83 668.83 L 374.43 668.83 L 379.24 665.22 L 381.64 665.22 L 382.84 662.82 L 385.25 662.82 L 394.86 656.81 L 399.67 655.61 L 400.87 653.20 L 403.27 653.20 L 403.27 652.00 L 396.06 652.00 L 394.86 650.80 L 396.06 649.60 L 408.08 649.60 L 415.29 647.20 L 418.89 643.59 L 422.50 643.59 L 433.31 637.58 L 444.13 633.98 L 446.53 631.58 L 450.13 631.58 L 453.74 629.17 L 456.14 629.17 L 457.34 626.77 L 460.95 626.77 L 464.55 624.37 L 469.36 624.37 L 474.17 620.76 L 477.77 620.76 L 481.38 618.36 L 488.58 617.16 L 493.39 614.75 L 497.00 614.75 L 511.42 608.74 L 515.02 608.74 L 528.24 603.94 L 536.65 602.74 L 543.86 599.13 L 548.66 599.13 L 549.87 597.93 L 553.47 597.93 L 554.67 596.73 L 577.50 591.92 L 578.70 590.72 L 583.51 590.72 L 589.52 588.32 L 594.33 588.32 L 600.33 585.91 L 606.34 585.91 L 615.95 582.31 L 623.16 582.31 L 624.37 581.11 L 659.21 581.11 L 660.41 579.91 L 655.61 579.91 L 654.41 581.11 L 653.20 579.91 L 639.99 581.11 L 638.79 579.91 L 639.99 578.70 L 645.99 578.70 L 650.80 576.30 L 659.21 576.30 L 660.41 575.10 L 666.42 575.10 L 667.62 573.90 L 676.03 573.90 L 677.24 572.70 L 695.26 571.50 L 696.46 570.29 L 708.48 570.29 L 709.68 569.09 L 721.70 569.09 L 722.90 567.89 L 768.56 566.69 L 769.76 565.49 L 785.38 565.49 L 786.58 564.29 L 790.19 565.49 L 801.00 561.88 L 808.21 561.88 L 794.99 561.88 L 793.79 560.68 L 792.59 561.88 L 787.78 561.88 L 786.58 560.68 L 791.39 558.28 L 807.01 558.28 L 808.21 555.87 L 814.22 555.87 L 815.42 554.67 L 832.24 554.67 L 820.23 554.67 L 819.03 553.47 L 816.62 554.67 L 815.42 553.47 L 814.22 554.67 L 813.02 553.47 L 774.57 553.47 L 773.36 552.27 L 774.57 551.07 Z" fill="black" stroke="none" fill-rule="evenodd"/>
  <path d="M 366.02 670.03 L 367.22 668.83 L 368.42 670.03 L 367.22 671.23 Z" fill="white" stroke="none" fill-rule="evenodd"/>
  <path d="M 362.42 668.83 L 363.62 667.62 L 367.22 668.83 L 366.02 670.03 Z" fill="white" stroke="none" fill-rule="evenodd"/>
  <path d="M 412.88 644.79 L 414.09 643.59 L 415.29 644.79 L 414.09 645.99 Z" fill="white" stroke="none" fill-rule="evenodd"/>
  <path d="M 784.18 560.68 L 785.38 559.48 L 786.58 560.68 L 785.38 561.88 Z" fill="white" stroke="none" fill-rule="evenodd"/>
  <path d="M 803.40 557.08 L 804.61 555.87 L 807.01 557.08 L 805.81 558.28 Z" fill="white" stroke="none" fill-rule="evenodd"/>
  <path d="M 569.09 546.26 L 571.50 547.46 L 572.70 546.26 Z" fill="black" stroke="none" fill-rule="evenodd"/>
  <path d="M 805.81 510.21 L 814.22 510.21 L 815.42 511.42 L 816.62 510.21 L 822.63 510.21 Z" fill="black" stroke="none" fill-rule="evenodd"/>
  <path d="M 614.75 450.13 L 612.35 451.34 L 614.75 451.34 Z" fill="black" stroke="none" fill-rule="evenodd"/>
  <path d="M 213.42 390.05 L 217.02 388.85 L 213.42 388.85 Z" fill="black" stroke="none" fill-rule="evenodd"/>
  <path d="M 211.01 388.85 L 209.81 388.85 L 209.81 390.05 Z" fill="black" stroke="none" fill-rule="evenodd"/>
  <path d="M 907.94 352.80 L 910.35 354.01 L 937.98 354.01 L 939.19 352.80 L 950.00 352.80 Z" fill="black" stroke="none" fill-rule="evenodd"/>
  <path d="M 734.91 319.16 L 733.71 320.36 L 734.91 320.36 Z" fill="black" stroke="none" fill-rule="evenodd"/>
  <path d="M 947.60 374.43 L 899.53 374.43 L 898.33 373.23 L 899.53 372.03 L 922.36 372.03 L 903.14 372.03 L 901.94 370.83 L 900.73 372.03 L 898.33 369.63 L 899.53 368.42 L 906.74 368.42 L 900.73 368.42 L 899.53 367.22 L 900.73 364.82 L 900.73 358.81 L 901.94 357.61 L 901.94 345.59 L 898.33 339.59 L 897.13 334.78 L 889.92 327.57 L 880.31 323.97 L 864.69 323.97 L 849.07 329.97 L 834.65 339.59 L 816.62 357.61 L 807.01 369.63 L 798.60 382.84 L 785.38 410.48 L 782.98 421.30 L 780.57 426.10 L 780.57 429.71 L 779.37 430.91 L 779.37 435.71 L 776.97 441.72 L 776.97 447.73 L 774.57 452.54 L 756.54 477.77 L 748.13 486.18 L 743.32 488.58 L 737.32 487.38 L 733.71 482.58 L 734.91 466.96 L 744.53 435.71 L 754.14 415.29 L 754.14 412.88 L 760.15 402.07 L 760.15 399.67 L 767.36 386.45 L 767.36 384.05 L 770.96 376.84 L 770.96 373.23 L 763.75 364.82 L 758.95 362.42 L 750.53 361.21 L 744.53 358.81 L 738.52 358.81 L 728.91 355.21 L 725.30 351.60 L 725.30 348.00 L 726.50 346.80 L 726.50 331.17 L 725.30 327.57 L 719.29 321.56 L 720.49 320.36 L 731.31 320.36 L 731.31 319.16 L 730.11 320.36 L 709.68 319.16 L 701.27 322.76 L 694.06 328.77 L 686.85 343.19 L 685.65 354.01 L 688.05 361.21 L 696.46 372.03 L 695.26 378.04 L 692.86 381.64 L 690.45 391.26 L 683.24 404.47 L 670.03 418.89 L 659.21 426.10 L 658.01 424.90 L 658.01 397.26 L 656.81 396.06 L 656.81 391.26 L 650.80 379.24 L 643.59 372.03 L 633.98 368.42 L 629.17 368.42 L 627.97 367.22 L 613.55 368.42 L 612.35 369.63 L 603.94 370.83 L 589.52 378.04 L 575.10 388.85 L 565.49 398.46 L 553.47 414.09 L 552.27 417.69 L 537.85 439.32 L 522.23 452.54 L 511.42 457.34 L 510.21 456.14 L 511.42 454.94 L 511.42 436.92 L 512.62 435.71 L 511.42 418.89 L 510.21 417.69 L 507.81 406.88 L 505.41 404.47 L 504.21 400.87 L 495.79 392.46 L 490.99 390.05 L 487.38 390.05 L 486.18 388.85 L 471.76 388.85 L 470.56 390.05 L 465.75 390.05 L 450.13 397.26 L 438.12 405.67 L 415.29 427.30 L 400.87 446.53 L 391.26 464.55 L 384.05 486.18 L 382.84 498.20 L 381.64 499.40 L 381.64 507.81 L 363.62 534.25 L 352.80 545.06 L 344.39 549.87 L 338.38 545.06 L 339.59 528.24 L 346.80 505.41 L 357.61 480.17 L 363.62 462.15 L 363.62 458.54 L 366.02 453.74 L 367.22 445.33 L 368.42 444.13 L 368.42 426.10 L 366.02 420.09 L 361.21 414.09 L 352.80 409.28 L 340.79 409.28 L 322.76 416.49 L 308.34 426.10 L 296.33 438.12 L 286.72 451.34 L 285.51 450.13 L 285.51 439.32 L 283.11 433.31 L 277.10 427.30 L 271.09 424.90 L 259.08 424.90 L 257.88 426.10 L 253.07 426.10 L 245.86 428.50 L 229.04 439.32 L 211.01 458.54 L 209.81 457.34 L 209.81 453.74 L 217.02 436.92 L 215.82 434.51 L 196.60 436.92 L 195.39 438.12 L 180.97 440.52 L 177.37 445.33 L 171.36 465.75 L 168.96 469.36 L 168.96 472.96 L 166.56 476.57 L 165.35 482.58 L 159.35 495.79 L 159.35 499.40 L 156.94 503.00 L 152.14 519.83 L 149.73 523.43 L 144.93 540.25 L 142.52 543.86 L 138.92 557.08 L 136.52 560.68 L 136.52 564.29 L 134.11 567.89 L 120.89 607.54 L 123.30 609.95 L 131.71 609.95 L 132.91 608.74 L 138.92 608.74 L 140.12 607.54 L 156.94 605.14 L 164.15 601.54 L 164.15 597.93 L 168.96 584.71 L 168.96 581.11 L 171.36 577.50 L 171.36 573.90 L 173.77 570.29 L 180.97 548.66 L 183.38 537.85 L 186.98 530.64 L 189.39 521.03 L 192.99 515.02 L 192.99 512.62 L 205.01 488.58 L 215.82 472.96 L 223.03 465.75 L 235.05 458.54 L 241.05 458.54 L 244.66 463.35 L 245.86 470.56 L 244.66 471.76 L 244.66 477.77 L 241.05 487.38 L 241.05 490.99 L 238.65 494.59 L 236.25 504.21 L 227.84 523.43 L 224.23 535.45 L 218.22 547.46 L 203.81 590.72 L 203.81 593.12 L 206.21 595.53 L 213.42 595.53 L 214.62 594.33 L 227.84 593.12 L 229.04 591.92 L 233.85 591.92 L 235.05 590.72 L 239.85 590.72 L 241.05 589.52 L 248.26 588.32 L 250.67 583.51 L 253.07 567.89 L 259.08 549.87 L 262.68 531.84 L 269.89 510.21 L 274.70 500.60 L 275.90 494.59 L 283.11 480.17 L 291.52 466.96 L 305.94 452.54 L 314.35 446.53 L 317.96 445.33 L 321.56 445.33 L 326.37 451.34 L 326.37 459.75 L 325.17 460.95 L 325.17 465.75 L 323.97 466.96 L 321.56 477.77 L 319.16 481.38 L 311.95 501.80 L 308.34 507.81 L 308.34 510.21 L 304.74 516.22 L 304.74 518.62 L 302.34 522.23 L 298.73 533.04 L 298.73 536.65 L 296.33 542.66 L 296.33 563.08 L 299.93 571.50 L 305.94 577.50 L 315.55 581.11 L 323.97 581.11 L 338.38 576.30 L 350.40 567.89 L 362.42 555.87 L 364.82 551.07 L 374.43 540.25 L 378.04 534.25 L 380.44 535.45 L 380.44 540.25 L 387.65 553.47 L 393.66 559.48 L 402.07 564.29 L 409.28 565.49 L 410.48 566.69 L 423.70 566.69 L 433.31 563.08 L 436.92 563.08 L 442.92 559.48 L 447.73 558.28 L 462.15 548.66 L 476.57 534.25 L 484.98 523.43 L 498.20 499.40 L 498.20 497.00 L 500.60 494.59 L 505.41 477.77 L 527.04 466.96 L 528.24 469.36 L 525.83 474.17 L 525.83 480.17 L 524.63 481.38 L 523.43 501.80 L 524.63 503.00 L 525.83 513.82 L 534.25 529.44 L 547.46 540.25 L 557.08 542.66 L 560.68 545.06 L 561.88 543.86 L 571.50 543.86 L 573.90 541.46 L 583.51 540.25 L 589.52 536.65 L 594.33 535.45 L 605.14 528.24 L 626.77 505.41 L 637.58 489.79 L 645.99 472.96 L 654.41 447.73 L 658.01 444.13 L 660.41 444.13 L 672.43 436.92 L 684.45 426.10 L 698.87 405.67 L 708.48 384.05 L 710.88 381.64 L 718.09 381.64 L 725.30 384.05 L 727.70 386.45 L 727.70 392.46 L 720.49 406.88 L 720.49 409.28 L 718.09 411.68 L 718.09 414.09 L 708.48 432.11 L 708.48 434.51 L 701.27 447.73 L 692.86 474.17 L 692.86 478.97 L 691.66 480.17 L 691.66 500.60 L 695.26 510.21 L 700.07 516.22 L 713.28 522.23 L 726.50 521.03 L 738.52 516.22 L 746.93 510.21 L 756.54 500.60 L 776.97 472.96 L 778.17 474.17 L 778.17 477.77 L 786.58 490.99 L 792.59 497.00 L 802.20 503.00 L 804.61 503.00 L 808.21 505.41 L 815.42 505.41 L 816.62 506.61 L 829.84 506.61 L 831.04 505.41 L 845.46 504.21 L 861.08 497.00 L 863.48 497.00 L 874.30 489.79 L 886.32 477.77 L 887.52 477.77 L 887.52 476.57 L 899.53 464.55 L 899.53 462.15 L 901.94 460.95 L 909.15 447.73 L 911.55 446.53 L 910.35 445.33 L 913.95 440.52 L 913.95 438.12 L 910.35 436.92 L 916.36 434.51 L 918.76 424.90 L 915.15 421.30 L 912.75 422.50 L 910.35 428.50 L 899.53 445.33 L 893.52 452.54 L 880.31 464.55 L 863.48 474.17 L 859.88 474.17 L 853.87 476.57 L 832.24 475.37 L 827.44 472.96 L 823.83 469.36 L 817.82 456.14 L 817.82 445.33 L 819.03 444.13 L 819.03 440.52 L 821.43 438.12 L 844.26 432.11 L 853.87 427.30 L 865.89 418.89 L 874.30 411.68 L 886.32 396.06 L 898.33 374.43 Z" fill="black" stroke="none" fill-rule="evenodd"/>
  <path d="M 839.45 476.57 L 840.65 475.37 L 844.26 475.37 L 845.46 476.57 L 844.26 477.77 L 840.65 477.77 Z" fill="white" stroke="none" fill-rule="evenodd"/>
  <path d="M 208.61 458.54 L 209.81 457.34 L 211.01 458.54 L 209.81 459.75 Z" fill="white" stroke="none" fill-rule="evenodd"/>
  <path d="M 442.92 451.34 L 448.93 462.15 L 456.14 470.56 L 462.15 475.37 L 470.56 478.97 L 481.38 480.17 L 482.58 481.38 L 482.58 484.98 L 478.97 495.79 L 471.76 509.01 L 460.95 523.43 L 452.54 531.84 L 444.13 537.85 L 438.12 540.25 L 426.10 540.25 L 420.09 534.25 L 417.69 527.04 L 417.69 510.21 L 418.89 509.01 L 420.09 495.79 L 427.30 475.37 L 438.12 454.94 Z" fill="white" stroke="none" fill-rule="evenodd"/>
  <path d="M 912.75 434.51 L 913.95 433.31 L 915.15 434.51 L 913.95 435.71 Z" fill="white" stroke="none" fill-rule="evenodd"/>
  <path d="M 587.12 427.30 L 588.32 429.71 L 602.74 442.92 L 612.35 447.73 L 615.95 447.73 L 621.96 450.13 L 630.37 450.13 L 631.58 451.34 L 631.58 454.94 L 619.56 482.58 L 605.14 503.00 L 590.72 515.02 L 585.91 517.42 L 576.30 517.42 L 569.09 513.82 L 564.29 504.21 L 564.29 486.18 L 565.49 484.98 L 566.69 471.76 L 572.70 453.74 L 581.11 435.71 Z" fill="white" stroke="none" fill-rule="evenodd"/>
  <path d="M 476.57 405.67 L 480.17 405.67 L 484.98 408.08 L 488.58 411.68 L 493.39 424.90 L 493.39 444.13 L 490.99 450.13 L 490.99 453.74 L 487.38 459.75 L 488.58 460.95 L 486.18 463.35 L 482.58 463.35 L 481.38 464.55 L 474.17 462.15 L 465.75 454.94 L 459.75 441.72 L 459.75 424.90 L 462.15 417.69 L 470.56 408.08 Z" fill="white" stroke="none" fill-rule="evenodd"/>
  <path d="M 625.57 382.84 L 632.78 384.05 L 637.58 391.26 L 638.79 399.67 L 639.99 400.87 L 639.99 420.09 L 636.38 430.91 L 632.78 433.31 L 623.16 433.31 L 614.75 428.50 L 609.95 422.50 L 606.34 412.88 L 606.34 402.07 L 608.74 396.06 L 615.95 387.65 Z" fill="white" stroke="none" fill-rule="evenodd"/>
  <path d="M 873.10 341.99 L 876.70 348.00 L 876.70 358.81 L 874.30 363.62 L 871.90 374.43 L 862.28 392.46 L 853.87 403.27 L 843.06 412.88 L 833.44 418.89 L 826.23 420.09 L 825.03 421.30 L 823.83 420.09 L 823.83 416.49 L 825.03 415.29 L 827.44 404.47 L 832.24 396.06 L 835.85 385.25 L 838.25 382.84 L 845.46 368.42 L 853.87 356.41 L 858.68 351.60 L 859.88 352.80 L 874.30 352.80 L 859.88 352.80 L 858.68 351.60 L 868.29 341.99 Z" fill="white" stroke="none" fill-rule="evenodd"/>
  <path d="M 810.61 209.81 L 821.43 209.81 L 820.23 208.61 Z" fill="black" stroke="none" fill-rule="evenodd"/>
  <path d="M 215.82 196.60 L 214.62 196.60 L 214.62 197.80 Z" fill="black" stroke="none" fill-rule="evenodd"/>
  <path d="M 275.90 199.00 L 266.29 194.19 L 261.48 194.19 L 260.28 192.99 L 247.06 192.99 L 245.86 194.19 L 241.05 194.19 L 225.43 201.40 L 212.22 211.01 L 202.60 221.83 L 201.40 220.63 L 201.40 217.02 L 207.41 205.01 L 207.41 200.20 L 206.21 199.00 L 176.17 203.81 L 174.97 205.01 L 171.36 205.01 L 168.96 207.41 L 149.73 265.09 L 142.52 281.91 L 140.12 292.72 L 137.72 296.33 L 112.48 372.03 L 112.48 375.63 L 101.67 408.08 L 99.27 411.68 L 96.86 422.50 L 92.06 433.31 L 92.06 436.92 L 89.65 440.52 L 82.44 463.35 L 78.84 470.56 L 77.64 477.77 L 80.04 480.17 L 95.66 478.97 L 96.86 477.77 L 118.49 474.17 L 123.30 471.76 L 123.30 468.16 L 126.90 459.75 L 126.90 456.14 L 129.31 451.34 L 129.31 447.73 L 131.71 442.92 L 135.31 426.10 L 138.92 417.69 L 138.92 414.09 L 146.13 392.46 L 146.13 388.85 L 152.14 373.23 L 153.34 366.02 L 155.74 363.62 L 164.15 372.03 L 173.77 376.84 L 182.18 378.04 L 183.38 379.24 L 199.00 379.24 L 200.20 378.04 L 212.22 375.63 L 224.23 369.63 L 233.85 362.42 L 250.67 344.39 L 257.88 332.38 L 261.48 328.77 L 274.70 304.74 L 274.70 302.34 L 278.30 296.33 L 285.51 275.90 L 286.72 266.29 L 289.12 260.28 L 289.12 250.67 L 290.32 249.47 L 289.12 248.26 L 290.32 247.06 L 290.32 225.43 L 289.12 224.23 L 289.12 219.43 L 286.72 212.22 L 281.91 205.01 Z" fill="black" stroke="none" fill-rule="evenodd"/>
  <path d="M 241.05 221.83 L 248.26 230.24 L 250.67 245.86 L 249.47 247.06 L 248.26 261.48 L 243.46 274.70 L 243.46 278.30 L 239.85 289.12 L 237.45 292.72 L 237.45 295.13 L 235.05 298.73 L 235.05 301.13 L 232.64 304.74 L 232.64 307.14 L 220.63 331.17 L 212.22 343.19 L 202.60 352.80 L 189.39 360.01 L 179.77 360.01 L 174.97 357.61 L 168.96 350.40 L 165.35 341.99 L 165.35 332.38 L 166.56 331.17 L 167.76 323.97 L 170.16 320.36 L 170.16 316.76 L 172.56 313.15 L 172.56 309.55 L 179.77 292.72 L 180.97 286.72 L 196.60 255.47 L 211.01 236.25 L 219.43 227.84 L 226.64 223.03 L 229.04 223.03 L 232.64 220.63 Z" fill="white" stroke="none" fill-rule="evenodd"/>
  <path d="M 343.19 129.31 L 343.19 144.93 L 346.80 152.14 L 354.01 158.14 L 357.61 159.35 L 369.63 159.35 L 378.04 155.74 L 381.64 156.94 L 388.85 156.94 L 390.05 155.74 L 392.46 156.94 L 393.66 155.74 L 414.09 155.74 L 380.44 155.74 L 379.24 154.54 L 392.46 142.52 L 397.26 131.71 L 397.26 117.29 L 396.06 113.68 L 387.65 104.07 L 384.05 102.87 L 374.43 102.87 L 373.23 104.07 L 364.82 105.27 L 357.61 108.88 L 349.20 117.29 Z" fill="black" stroke="none" fill-rule="evenodd"/>
  <path d="M 905.54 141.32 L 874.30 141.32 L 873.10 140.12 L 876.70 129.31 L 876.70 113.68 L 875.50 112.48 L 875.50 108.88 L 873.10 106.48 L 871.90 102.87 L 867.09 98.06 L 861.08 94.46 L 853.87 92.06 L 843.06 92.06 L 841.86 93.26 L 831.04 95.66 L 819.03 101.67 L 805.81 111.28 L 782.98 134.11 L 768.56 154.54 L 758.95 172.56 L 758.95 174.97 L 751.74 190.59 L 749.33 202.60 L 745.73 212.22 L 745.73 215.82 L 739.72 227.84 L 728.91 242.26 L 712.08 259.08 L 702.47 265.09 L 688.05 271.09 L 678.44 272.30 L 677.24 271.09 L 672.43 271.09 L 665.22 266.29 L 660.41 256.68 L 660.41 243.46 L 659.21 242.26 L 660.41 241.05 L 660.41 231.44 L 661.62 230.24 L 664.02 215.82 L 668.83 205.01 L 670.03 199.00 L 674.83 190.59 L 674.83 188.18 L 677.24 185.78 L 677.24 183.38 L 697.66 153.34 L 714.49 138.92 L 719.29 138.92 L 724.10 142.52 L 725.30 144.93 L 725.30 156.94 L 724.10 158.14 L 724.10 161.75 L 718.09 172.56 L 707.28 182.18 L 707.28 186.98 L 710.88 190.59 L 719.29 192.99 L 731.31 188.18 L 736.11 183.38 L 743.32 171.36 L 744.53 164.15 L 745.73 162.95 L 745.73 158.14 L 746.93 156.94 L 746.93 138.92 L 744.53 131.71 L 740.92 126.90 L 737.32 124.50 L 727.70 120.89 L 713.28 120.89 L 691.66 128.10 L 671.23 142.52 L 655.61 158.14 L 645.99 170.16 L 636.38 185.78 L 627.97 203.81 L 626.77 209.81 L 624.37 213.42 L 619.56 227.84 L 618.36 236.25 L 615.95 241.05 L 615.95 247.06 L 612.35 254.27 L 595.53 275.90 L 587.12 284.31 L 579.91 286.72 L 573.90 281.91 L 573.90 278.30 L 572.70 277.10 L 573.90 275.90 L 575.10 261.48 L 577.50 256.68 L 577.50 253.07 L 581.11 242.26 L 589.52 224.23 L 589.52 221.83 L 608.74 184.58 L 609.95 173.77 L 603.94 166.56 L 601.54 166.56 L 597.93 164.15 L 578.70 161.75 L 565.49 156.94 L 563.08 154.54 L 564.29 134.11 L 561.88 129.31 L 555.87 124.50 L 545.06 123.30 L 536.65 126.90 L 528.24 135.31 L 523.43 146.13 L 523.43 149.73 L 522.23 150.93 L 523.43 160.55 L 525.83 164.15 L 525.83 166.56 L 534.25 177.37 L 531.84 182.18 L 531.84 185.78 L 528.24 196.60 L 521.03 212.22 L 521.03 214.62 L 509.01 238.65 L 506.61 241.05 L 505.41 245.86 L 503.00 248.26 L 493.39 266.29 L 488.58 272.30 L 487.38 275.90 L 481.38 284.31 L 460.95 304.74 L 451.34 309.55 L 448.93 311.95 L 446.53 311.95 L 439.32 315.55 L 424.90 315.55 L 421.30 314.35 L 414.09 307.14 L 411.68 301.13 L 411.68 290.32 L 412.88 289.12 L 414.09 281.91 L 416.49 279.51 L 421.30 279.51 L 422.50 278.30 L 430.91 277.10 L 441.72 273.50 L 451.34 268.69 L 466.96 257.88 L 483.78 238.65 L 494.59 220.63 L 500.60 202.60 L 500.60 189.39 L 497.00 179.77 L 487.38 171.36 L 480.17 168.96 L 463.35 168.96 L 462.15 170.16 L 451.34 172.56 L 434.51 182.18 L 420.09 194.19 L 406.88 208.61 L 392.46 229.04 L 384.05 245.86 L 384.05 248.26 L 378.04 261.48 L 374.43 278.30 L 368.42 295.13 L 352.80 315.55 L 340.79 325.17 L 334.78 323.97 L 331.17 319.16 L 331.17 311.95 L 332.38 310.75 L 333.58 298.73 L 340.79 277.10 L 343.19 273.50 L 344.39 267.49 L 346.80 263.89 L 346.80 260.28 L 352.80 247.06 L 355.21 237.45 L 357.61 233.85 L 361.21 221.83 L 372.03 196.60 L 373.23 186.98 L 366.02 185.78 L 358.81 188.18 L 351.60 188.18 L 345.59 190.59 L 334.78 191.79 L 332.38 195.39 L 332.38 199.00 L 328.77 206.21 L 323.97 223.03 L 321.56 226.64 L 319.16 236.25 L 314.35 245.86 L 311.95 255.47 L 305.94 267.49 L 303.54 277.10 L 301.13 280.71 L 299.93 286.72 L 297.53 290.32 L 293.93 301.13 L 291.52 315.55 L 290.32 316.76 L 290.32 321.56 L 289.12 322.76 L 289.12 341.99 L 290.32 343.19 L 290.32 346.80 L 292.72 351.60 L 298.73 357.61 L 303.54 360.01 L 313.15 361.21 L 314.35 360.01 L 319.16 360.01 L 326.37 357.61 L 339.59 349.20 L 351.60 338.38 L 358.81 329.97 L 369.63 313.15 L 370.83 314.35 L 372.03 321.56 L 374.43 323.97 L 376.84 329.97 L 387.65 340.79 L 399.67 345.59 L 416.49 345.59 L 417.69 344.39 L 422.50 344.39 L 423.70 343.19 L 432.11 341.99 L 450.13 333.58 L 465.75 321.56 L 472.96 313.15 L 474.17 313.15 L 490.99 291.52 L 492.19 287.92 L 497.00 281.91 L 506.61 263.89 L 509.01 261.48 L 530.64 219.43 L 533.04 217.02 L 537.85 207.41 L 537.85 205.01 L 545.06 192.99 L 546.26 188.18 L 548.66 185.78 L 560.68 186.98 L 566.69 190.59 L 566.69 192.99 L 561.88 202.60 L 561.88 205.01 L 552.27 223.03 L 552.27 225.43 L 549.87 227.84 L 545.06 237.45 L 545.06 239.85 L 536.65 255.47 L 530.64 274.70 L 530.64 279.51 L 529.44 280.71 L 529.44 292.72 L 528.24 293.93 L 529.44 295.13 L 529.44 302.34 L 531.84 309.55 L 535.45 314.35 L 542.66 319.16 L 549.87 320.36 L 551.07 321.56 L 558.28 321.56 L 559.48 320.36 L 565.49 320.36 L 575.10 316.76 L 587.12 308.34 L 593.12 302.34 L 615.95 272.30 L 620.76 284.31 L 625.57 291.52 L 629.17 295.13 L 639.99 301.13 L 643.59 301.13 L 644.79 302.34 L 667.62 302.34 L 668.83 301.13 L 673.63 301.13 L 684.45 297.53 L 696.46 291.52 L 713.28 278.30 L 731.31 259.08 L 742.12 243.46 L 743.32 244.66 L 745.73 255.47 L 749.33 262.68 L 760.15 273.50 L 768.56 278.30 L 775.77 280.71 L 781.78 280.71 L 782.98 281.91 L 802.20 280.71 L 808.21 278.30 L 823.83 278.30 L 823.83 277.10 L 816.62 277.10 L 815.42 275.90 L 822.63 273.50 L 825.03 271.09 L 827.44 271.09 L 831.04 267.49 L 834.65 266.29 L 845.46 257.88 L 856.28 247.06 L 856.28 245.86 L 859.88 243.46 L 873.10 226.64 L 873.10 224.23 L 877.90 217.02 L 880.31 209.81 L 907.94 209.81 L 881.51 209.81 L 880.31 208.61 L 880.31 202.60 L 876.70 200.20 L 873.10 203.81 L 867.09 215.82 L 852.67 232.64 L 844.26 239.85 L 834.65 245.86 L 823.83 250.67 L 819.03 250.67 L 817.82 251.87 L 803.40 251.87 L 794.99 248.26 L 792.59 245.86 L 786.58 233.85 L 786.58 221.83 L 787.78 220.63 L 788.99 213.42 L 791.39 211.01 L 803.40 209.81 L 816.62 203.81 L 819.03 203.81 L 838.25 191.79 L 856.28 172.56 L 863.48 161.75 L 871.90 143.72 L 874.30 141.32 Z" fill="black" stroke="none" fill-rule="evenodd"/>
  <path d="M 472.96 185.78 L 476.57 189.39 L 476.57 202.60 L 471.76 217.02 L 463.35 232.64 L 459.75 237.45 L 440.52 255.47 L 427.30 261.48 L 421.30 261.48 L 420.09 259.08 L 424.90 248.26 L 424.90 245.86 L 430.91 236.25 L 433.31 229.04 L 446.53 207.41 L 460.95 190.59 L 468.16 185.78 Z" fill="white" stroke="none" fill-rule="evenodd"/>
  <path d="M 846.66 110.08 L 850.27 114.89 L 850.27 129.31 L 845.46 144.93 L 839.45 156.94 L 834.65 164.15 L 821.43 178.57 L 809.41 186.98 L 798.60 186.98 L 798.60 188.18 L 803.40 188.18 L 804.61 189.39 L 799.80 191.79 L 796.19 191.79 L 794.99 190.59 L 794.99 186.98 L 797.40 179.77 L 799.80 177.37 L 803.40 178.57 L 799.80 176.17 L 801.00 171.36 L 815.42 143.72 L 820.23 137.72 L 821.43 134.11 L 832.24 120.89 L 834.65 119.69 L 839.45 113.68 Z" fill="white" stroke="none" fill-rule="evenodd"/>
</svg>
