<svg xmlns="http://www.w3.org/2000/svg" viewBox="0 0 1000 1000">
  <rect x="0" y="0" width="1000" height="1000" fill="white"/>
  <path d="M 758.59 730.05 L 758.59 731.24 L 759.78 731.24 Z" fill="black" stroke="none" fill-rule="evenodd"/>
  <path d="M 859.64 404.29 L 860.83 405.48 L 860.83 404.29 Z" fill="black" stroke="none" fill-rule="evenodd"/>
  <path d="M 860.83 385.27 L 860.83 386.46 L 863.21 386.46 L 865.59 388.84 L 870.34 388.84 L 871.53 387.65 L 885.80 387.65 L 883.42 386.46 L 867.97 386.46 L 866.78 385.27 Z" fill="black" stroke="none" fill-rule="evenodd"/>
  <path d="M 947.62 347.23 L 947.62 348.41 L 950.00 348.41 L 950.00 347.23 Z" fill="black" stroke="none" fill-rule="evenodd"/>
  <path d="M 938.11 347.23 L 938.11 348.41 L 941.68 348.41 L 940.49 347.23 Z" fill="black" stroke="none" fill-rule="evenodd"/>
  <path d="M 923.84 347.23 L 923.84 348.41 L 930.98 348.41 L 930.98 347.23 Z" fill="black" stroke="none" fill-rule="evenodd"/>
  <path d="M 882.23 304.43 L 724.11 304.43 L 722.92 303.24 L 714.60 303.24 L 712.22 304.43 L 705.09 311.56 L 705.09 312.75 L 695.57 325.83 L 694.39 329.39 L 690.82 334.15 L 690.82 336.53 L 671.80 363.87 L 670.61 367.44 L 651.59 394.78 L 650.40 398.35 L 648.02 400.73 L 648.02 401.92 L 645.64 404.29 L 645.64 405.48 L 643.26 407.86 L 643.26 409.05 L 640.89 411.43 L 640.89 412.62 L 638.51 414.99 L 633.75 423.32 L 624.24 436.39 L 623.05 439.96 L 620.67 442.34 L 620.67 443.53 L 601.65 470.87 L 600.46 474.44 L 598.08 476.82 L 598.08 478.01 L 595.71 480.38 L 595.71 481.57 L 593.33 483.95 L 593.33 485.14 L 590.95 487.52 L 590.95 488.71 L 588.57 491.08 L 588.57 492.27 L 586.20 494.65 L 586.20 495.84 L 583.82 498.22 L 583.82 499.41 L 581.44 501.78 L 576.68 510.11 L 562.42 530.32 L 561.23 533.88 L 558.85 536.26 L 558.85 537.45 L 556.47 539.83 L 556.47 541.02 L 554.10 543.39 L 554.10 544.58 L 535.07 571.93 L 533.88 575.50 L 531.51 577.87 L 531.51 579.06 L 512.48 606.41 L 510.11 611.16 L 500.59 624.24 L 499.41 627.81 L 491.08 638.51 L 488.71 636.13 L 488.71 633.75 L 487.52 632.56 L 487.52 630.18 L 486.33 629.00 L 486.33 626.62 L 483.95 621.86 L 483.95 618.30 L 481.57 613.54 L 481.57 609.97 L 479.19 605.22 L 478.01 596.90 L 475.63 592.14 L 475.63 588.57 L 474.44 587.38 L 474.44 583.82 L 473.25 582.63 L 470.87 573.12 L 468.49 573.12 L 457.79 579.06 L 455.42 579.06 L 449.47 582.63 L 443.53 583.82 L 439.96 586.20 L 437.58 586.20 L 432.83 588.57 L 429.26 588.57 L 424.50 590.95 L 420.94 590.95 L 419.75 592.14 L 416.18 592.14 L 414.99 593.33 L 410.24 593.33 L 409.05 594.52 L 403.10 594.52 L 401.92 595.71 L 394.78 595.71 L 393.59 596.90 L 390.03 596.90 L 390.03 602.84 L 391.22 604.03 L 392.40 612.35 L 394.78 617.11 L 394.78 620.67 L 397.16 625.43 L 397.16 629.00 L 399.54 633.75 L 399.54 637.32 L 400.73 638.51 L 400.73 640.89 L 403.10 645.64 L 403.10 649.21 L 405.48 653.96 L 405.48 657.53 L 406.67 658.72 L 406.67 661.10 L 407.86 662.29 L 407.86 664.66 L 410.24 669.42 L 410.24 672.99 L 411.43 674.17 L 411.43 676.55 L 412.62 677.74 L 412.62 680.12 L 413.80 681.31 L 413.80 683.69 L 414.99 684.87 L 414.99 687.25 L 417.37 692.01 L 417.37 695.57 L 418.56 696.76 L 418.56 699.14 L 419.75 700.33 L 419.75 702.71 L 420.94 703.90 L 420.94 706.27 L 422.13 707.46 L 422.13 709.84 L 424.50 714.60 L 425.69 720.54 L 428.07 725.30 L 428.07 728.86 L 429.26 730.05 L 429.26 732.43 L 430.45 733.62 L 430.45 736.00 L 431.64 737.19 L 431.64 739.56 L 432.83 740.75 L 432.83 743.13 L 434.02 744.32 L 434.02 746.70 L 435.20 747.89 L 435.20 750.26 L 436.39 751.45 L 436.39 753.83 L 438.77 758.59 L 438.77 762.15 L 444.72 774.04 L 447.09 775.23 L 451.85 775.23 L 460.17 769.29 L 460.17 768.10 L 462.55 765.72 L 464.93 760.96 L 468.49 757.40 L 468.49 756.21 L 470.87 753.83 L 470.87 752.64 L 473.25 750.26 L 473.25 749.08 L 475.63 746.70 L 475.63 745.51 L 478.01 743.13 L 478.01 741.94 L 480.38 739.56 L 480.38 738.38 L 482.76 736.00 L 487.52 727.68 L 491.08 724.11 L 491.08 722.92 L 493.46 720.54 L 493.46 719.35 L 495.84 716.97 L 495.84 715.79 L 498.22 713.41 L 498.22 712.22 L 500.59 709.84 L 500.59 708.65 L 502.97 706.27 L 507.73 697.95 L 511.29 694.39 L 511.29 693.20 L 518.43 683.69 L 518.43 682.50 L 521.99 678.93 L 526.75 670.61 L 530.32 667.04 L 535.07 658.72 L 538.64 655.15 L 543.39 646.83 L 546.96 643.26 L 551.72 634.94 L 555.28 631.37 L 560.04 623.05 L 563.61 619.48 L 563.61 618.30 L 565.98 615.92 L 568.36 611.16 L 571.93 607.60 L 576.68 599.27 L 580.25 595.71 L 585.01 587.38 L 594.52 575.50 L 594.52 574.31 L 596.90 571.93 L 601.65 563.61 L 611.16 551.72 L 615.92 543.39 L 625.43 531.51 L 625.43 530.32 L 627.81 527.94 L 632.56 519.62 L 636.13 516.05 L 640.89 507.73 L 650.40 495.84 L 650.40 494.65 L 652.77 492.27 L 657.53 483.95 L 667.04 472.06 L 671.80 463.74 L 675.36 460.17 L 680.12 451.85 L 683.69 448.28 L 688.44 439.96 L 692.01 436.39 L 696.76 428.07 L 700.33 424.50 L 705.09 416.18 L 708.65 412.62 L 708.65 411.43 L 713.41 405.48 L 714.60 406.67 L 714.60 409.05 L 713.41 410.24 L 712.22 420.94 L 711.03 422.13 L 711.03 426.88 L 709.84 428.07 L 709.84 432.83 L 708.65 434.02 L 708.65 438.77 L 707.46 439.96 L 706.27 450.66 L 705.09 451.85 L 705.09 455.42 L 703.90 456.61 L 703.90 461.36 L 702.71 462.55 L 701.52 473.25 L 700.33 474.44 L 700.33 478.01 L 699.14 479.19 L 697.95 489.89 L 696.76 491.08 L 696.76 494.65 L 695.57 495.84 L 695.57 500.59 L 694.39 501.78 L 693.20 511.29 L 692.01 512.48 L 692.01 516.05 L 690.82 517.24 L 689.63 527.94 L 688.44 529.13 L 687.25 538.64 L 686.06 539.83 L 686.06 543.39 L 684.87 544.58 L 683.69 555.28 L 682.50 556.47 L 682.50 560.04 L 681.31 561.23 L 680.12 571.93 L 678.93 573.12 L 678.93 576.68 L 677.74 577.87 L 676.55 588.57 L 675.36 589.76 L 675.36 593.33 L 674.17 594.52 L 672.99 605.22 L 671.80 606.41 L 671.80 609.97 L 670.61 611.16 L 670.61 615.92 L 669.42 617.11 L 669.42 621.86 L 668.23 623.05 L 667.04 633.75 L 665.85 634.94 L 665.85 638.51 L 664.66 639.70 L 664.66 644.45 L 663.47 645.64 L 663.47 650.40 L 662.29 651.59 L 662.29 656.34 L 661.10 657.53 L 661.10 662.29 L 659.91 663.47 L 659.91 668.23 L 658.72 669.42 L 658.72 674.17 L 657.53 675.36 L 657.53 681.31 L 656.34 682.50 L 643.26 682.50 L 643.26 683.69 L 655.15 683.69 L 656.34 684.87 L 655.15 687.25 L 655.15 692.01 L 652.77 694.39 L 651.59 693.20 L 639.70 693.20 L 638.51 695.57 L 637.32 694.39 L 627.81 694.39 L 631.37 694.39 L 632.56 695.57 L 636.13 695.57 L 637.32 694.39 L 638.51 695.57 L 645.64 695.57 L 646.83 696.76 L 649.21 696.76 L 651.59 694.39 L 652.77 696.76 L 659.91 696.76 L 661.10 697.95 L 659.91 699.14 L 653.96 699.14 L 648.02 716.97 L 659.91 716.97 L 661.10 718.16 L 659.91 719.35 L 633.75 719.35 L 632.56 720.54 L 631.37 719.35 L 630.18 720.54 L 629.00 719.35 L 626.62 720.54 L 625.43 719.35 L 607.60 719.35 L 607.60 720.54 L 618.30 720.54 L 620.67 719.35 L 621.86 720.54 L 633.75 720.54 L 634.94 721.73 L 644.45 721.73 L 645.64 722.92 L 638.51 737.19 L 636.13 739.56 L 633.75 744.32 L 629.00 749.08 L 629.00 750.26 L 618.30 759.78 L 614.73 760.96 L 612.35 763.34 L 607.60 765.72 L 605.22 765.72 L 604.03 766.91 L 601.65 766.91 L 600.46 768.10 L 598.08 768.10 L 596.90 769.29 L 594.52 769.29 L 589.76 771.66 L 586.20 771.66 L 585.01 772.85 L 575.50 775.23 L 570.74 781.18 L 569.55 788.31 L 568.36 789.50 L 568.36 795.44 L 567.17 796.63 L 567.17 799.01 L 568.36 800.20 L 568.36 802.58 L 571.93 804.95 L 789.50 804.95 L 790.69 803.76 L 795.44 803.76 L 799.01 800.20 L 800.20 795.44 L 801.39 794.25 L 801.39 790.69 L 802.58 789.50 L 802.58 785.93 L 803.76 784.74 L 803.76 778.80 L 802.58 776.42 L 797.82 774.04 L 778.80 774.04 L 777.61 772.85 L 778.80 771.66 L 789.50 771.66 L 785.93 771.66 L 784.74 770.48 L 781.18 770.48 L 779.99 769.29 L 774.04 768.10 L 766.91 764.53 L 762.15 760.96 L 763.34 759.78 L 769.29 759.78 L 770.48 758.59 L 784.74 758.59 L 785.93 757.40 L 769.29 757.40 L 768.10 758.59 L 760.96 758.59 L 757.40 755.02 L 757.40 753.83 L 753.83 755.02 L 752.64 753.83 L 750.26 753.83 L 746.70 750.26 L 725.30 750.26 L 724.11 749.08 L 725.30 747.89 L 813.28 747.89 L 813.28 746.70 L 794.25 746.70 L 793.06 745.51 L 782.36 745.51 L 781.18 744.32 L 756.21 744.32 L 755.02 743.13 L 755.02 734.81 L 756.21 733.62 L 756.21 728.86 L 751.45 728.86 L 750.26 727.68 L 747.89 728.86 L 746.70 727.68 L 741.94 728.86 L 737.19 726.49 L 738.38 725.30 L 759.78 725.30 L 760.96 724.11 L 777.61 724.11 L 778.80 722.92 L 785.93 722.92 L 776.42 722.92 L 775.23 721.73 L 759.78 721.73 L 758.59 719.35 L 759.78 718.16 L 759.78 713.41 L 760.96 712.22 L 760.96 707.46 L 762.15 706.27 L 762.15 701.52 L 763.34 700.33 L 763.34 695.57 L 764.53 694.39 L 765.72 683.69 L 766.91 682.50 L 766.91 678.93 L 768.10 677.74 L 768.10 672.99 L 769.29 671.80 L 769.29 667.04 L 770.48 665.85 L 771.66 655.15 L 772.85 653.96 L 772.85 650.40 L 774.04 649.21 L 774.04 644.45 L 775.23 643.26 L 775.23 638.51 L 776.42 637.32 L 777.61 626.62 L 778.80 625.43 L 778.80 621.86 L 779.99 620.67 L 781.18 609.97 L 782.36 608.78 L 782.36 605.22 L 783.55 604.03 L 784.74 593.33 L 785.93 592.14 L 785.93 588.57 L 787.12 587.38 L 787.12 582.63 L 788.31 581.44 L 789.50 570.74 L 790.69 569.55 L 790.69 565.98 L 791.88 564.80 L 793.06 554.10 L 794.25 552.91 L 794.25 549.34 L 795.44 548.15 L 795.44 543.39 L 796.63 542.21 L 797.82 531.51 L 799.01 530.32 L 799.01 526.75 L 800.20 525.56 L 800.20 520.81 L 801.39 519.62 L 801.39 514.86 L 802.58 513.67 L 802.58 508.92 L 803.76 507.73 L 803.76 502.97 L 804.95 501.78 L 804.95 498.22 L 806.14 497.03 L 806.14 492.27 L 807.33 491.08 L 808.52 481.57 L 809.71 480.38 L 809.71 475.63 L 810.90 474.44 L 812.09 464.93 L 813.28 463.74 L 813.28 460.17 L 814.46 458.98 L 815.65 448.28 L 816.84 447.09 L 818.03 437.58 L 819.22 436.39 L 819.22 432.83 L 820.41 431.64 L 821.60 420.94 L 822.79 419.75 L 822.79 416.18 L 823.98 414.99 L 833.49 413.80 L 825.17 413.80 L 823.98 412.62 L 823.98 410.24 L 825.17 409.05 L 823.98 407.86 L 827.54 405.48 L 853.70 405.48 L 853.70 404.29 L 845.38 404.29 L 844.19 403.10 L 827.54 403.10 L 826.35 400.73 L 827.54 399.54 L 828.73 390.03 L 829.92 388.84 L 845.38 388.84 L 846.57 387.65 L 848.94 388.84 L 858.45 388.84 L 858.45 387.65 L 857.27 387.65 L 854.89 385.27 L 847.75 385.27 L 846.57 386.46 L 845.38 385.27 L 799.01 385.27 L 797.82 384.08 L 801.39 380.52 L 803.76 381.70 L 809.71 381.70 L 810.90 380.52 L 813.28 381.70 L 827.54 381.70 L 829.92 378.14 L 829.92 375.76 L 833.49 369.82 L 838.24 369.82 L 839.43 368.63 L 876.29 368.63 L 877.48 367.44 L 882.23 367.44 L 870.34 367.44 L 869.15 366.25 L 848.94 366.25 L 847.75 365.06 L 818.03 365.06 L 815.65 362.68 L 816.84 361.49 L 819.22 362.68 L 821.60 361.49 L 838.24 361.49 L 846.57 349.60 L 848.94 350.79 L 850.13 349.60 L 885.80 349.60 L 886.99 348.41 L 890.55 348.41 L 891.74 349.60 L 892.93 348.41 L 904.82 348.41 L 906.01 349.60 L 913.14 348.41 L 914.33 349.60 L 915.52 348.41 L 921.47 348.41 L 921.47 347.23 L 919.09 347.23 L 917.90 346.04 L 915.52 346.04 L 914.33 347.23 L 913.14 346.04 L 894.12 346.04 L 892.93 344.85 L 888.18 346.04 L 886.99 344.85 L 867.97 344.85 L 866.78 343.66 L 833.49 342.47 L 832.30 341.28 L 835.87 338.90 L 858.45 338.90 L 862.02 336.53 L 864.40 336.53 L 865.59 335.34 L 867.97 335.34 L 869.15 334.15 L 871.53 334.15 L 872.72 332.96 L 877.48 331.77 L 879.85 329.39 L 882.23 324.64 L 882.23 322.26 L 884.61 317.50 L 884.61 313.94 L 885.80 312.75 L 885.80 309.18 Z" fill="black" stroke="none" fill-rule="evenodd"/>
  <path d="M 486.33 229.52 L 482.76 228.34 L 480.38 225.96 L 472.06 222.39 L 469.68 220.01 L 464.93 217.64 L 462.55 217.64 L 456.61 214.07 L 454.23 214.07 L 450.66 211.69 L 444.72 210.50 L 441.15 208.12 L 437.58 208.12 L 436.39 206.94 L 434.02 206.94 L 429.26 204.56 L 425.69 204.56 L 424.50 203.37 L 420.94 203.37 L 419.75 202.18 L 414.99 202.18 L 413.80 200.99 L 409.05 200.99 L 407.86 199.80 L 401.92 199.80 L 400.73 198.61 L 393.59 198.61 L 392.40 197.42 L 384.08 197.42 L 382.89 196.24 L 371.00 196.24 L 369.82 195.05 L 324.64 195.05 L 323.45 196.24 L 307.99 196.24 L 306.80 197.42 L 293.73 197.42 L 292.54 198.61 L 283.03 198.61 L 281.84 199.80 L 273.51 199.80 L 272.32 200.99 L 265.19 200.99 L 264.00 202.18 L 259.25 202.18 L 258.06 203.37 L 253.30 203.37 L 252.11 204.56 L 248.55 204.56 L 247.36 205.75 L 237.85 206.94 L 233.09 209.31 L 229.52 209.31 L 228.34 210.50 L 225.96 210.50 L 224.77 211.69 L 222.39 211.69 L 221.20 212.88 L 218.82 212.88 L 217.64 214.07 L 215.26 214.07 L 214.07 215.26 L 204.56 217.64 L 200.99 220.01 L 198.61 220.01 L 195.05 222.39 L 192.67 222.39 L 158.19 240.22 L 155.81 242.60 L 154.62 242.60 L 152.25 244.98 L 151.06 244.98 L 148.68 247.36 L 140.36 252.11 L 132.03 259.25 L 130.85 259.25 L 124.90 265.19 L 123.71 265.19 L 101.12 287.78 L 101.12 288.97 L 95.18 294.91 L 95.18 296.10 L 91.61 299.67 L 91.61 300.86 L 88.04 304.43 L 88.04 305.61 L 80.91 315.13 L 79.72 318.69 L 77.34 321.07 L 74.97 327.01 L 72.59 329.39 L 69.02 336.53 L 67.83 341.28 L 61.89 353.17 L 61.89 355.55 L 59.51 360.30 L 58.32 366.25 L 57.13 367.44 L 57.13 371.00 L 55.94 372.19 L 55.94 375.76 L 54.76 376.95 L 54.76 381.70 L 53.57 382.89 L 53.57 387.65 L 52.38 388.84 L 52.38 395.97 L 51.19 397.16 L 51.19 407.86 L 50.00 409.05 L 50.00 439.96 L 51.19 441.15 L 51.19 450.66 L 52.38 451.85 L 52.38 456.61 L 53.57 457.79 L 54.76 467.31 L 57.13 472.06 L 57.13 475.63 L 59.51 479.19 L 59.51 481.57 L 61.89 485.14 L 61.89 487.52 L 66.64 497.03 L 73.78 506.54 L 73.78 507.73 L 77.34 511.29 L 77.34 512.48 L 89.23 524.37 L 90.42 524.37 L 93.99 527.94 L 95.18 527.94 L 104.69 535.07 L 111.82 538.64 L 114.20 538.64 L 117.77 541.02 L 120.15 541.02 L 121.33 542.21 L 123.71 542.21 L 128.47 544.58 L 137.98 545.77 L 139.17 546.96 L 168.89 546.96 L 170.08 545.77 L 174.83 545.77 L 176.02 544.58 L 185.54 542.21 L 199.80 533.88 L 209.31 524.37 L 212.88 517.24 L 212.88 510.11 L 211.69 507.73 L 208.12 505.35 L 203.37 504.16 L 202.18 505.35 L 196.24 506.54 L 189.10 510.11 L 185.54 510.11 L 184.35 511.29 L 176.02 511.29 L 174.83 510.11 L 170.08 510.11 L 168.89 508.92 L 166.51 508.92 L 159.38 505.35 L 152.25 499.41 L 151.06 499.41 L 145.11 493.46 L 145.11 492.27 L 141.55 488.71 L 141.55 487.52 L 139.17 485.14 L 137.98 481.57 L 134.41 476.82 L 134.41 474.44 L 132.03 470.87 L 132.03 468.49 L 129.66 463.74 L 128.47 455.42 L 127.28 454.23 L 127.28 448.28 L 126.09 447.09 L 126.09 410.24 L 127.28 409.05 L 128.47 395.97 L 129.66 394.78 L 129.66 391.22 L 130.85 390.03 L 132.03 381.70 L 133.22 380.52 L 133.22 378.14 L 134.41 376.95 L 136.79 367.44 L 139.17 363.87 L 139.17 361.49 L 142.73 355.55 L 142.73 353.17 L 147.49 343.66 L 149.87 341.28 L 152.25 335.34 L 157.00 329.39 L 158.19 325.83 L 161.76 322.26 L 161.76 321.07 L 167.70 313.94 L 167.70 312.75 L 173.65 306.80 L 173.65 305.61 L 193.86 284.21 L 195.05 284.21 L 211.69 268.76 L 212.88 268.76 L 221.20 261.62 L 229.52 256.87 L 235.47 252.11 L 241.41 249.74 L 243.79 247.36 L 255.68 241.41 L 258.06 241.41 L 264.00 237.85 L 266.38 237.85 L 269.95 235.47 L 272.32 235.47 L 273.51 234.28 L 279.46 233.09 L 280.65 231.90 L 284.21 231.90 L 288.97 229.52 L 298.48 228.34 L 299.67 227.15 L 305.61 227.15 L 306.80 225.96 L 316.31 225.96 L 317.50 224.77 L 348.41 224.77 L 349.60 225.96 L 357.93 225.96 L 359.11 227.15 L 363.87 227.15 L 365.06 228.34 L 374.57 229.52 L 375.76 230.71 L 385.27 233.09 L 388.84 235.47 L 391.22 235.47 L 403.10 241.41 L 405.48 243.79 L 409.05 244.98 L 416.18 250.92 L 417.37 250.92 L 422.13 255.68 L 423.32 255.68 L 438.77 271.14 L 438.77 272.32 L 443.53 277.08 L 443.53 278.27 L 448.28 284.21 L 449.47 287.78 L 451.85 290.16 L 455.42 297.29 L 455.42 299.67 L 458.98 305.61 L 458.98 307.99 L 461.36 312.75 L 461.36 316.31 L 462.55 317.50 L 462.55 321.07 L 463.74 322.26 L 463.74 325.83 L 464.93 327.01 L 464.93 332.96 L 466.12 334.15 L 466.12 343.66 L 467.31 344.85 L 467.31 375.76 L 466.12 376.95 L 466.12 387.65 L 464.93 388.84 L 464.93 395.97 L 463.74 397.16 L 463.74 401.92 L 462.55 403.10 L 461.36 413.80 L 460.17 414.99 L 460.17 418.56 L 458.98 419.75 L 457.79 428.07 L 455.42 432.83 L 455.42 436.39 L 454.23 437.58 L 451.85 447.09 L 449.47 450.66 L 448.28 456.61 L 434.02 485.14 L 428.07 492.27 L 428.07 493.46 L 423.32 498.22 L 423.32 499.41 L 409.05 513.67 L 407.86 513.67 L 404.29 517.24 L 403.10 517.24 L 399.54 520.81 L 395.97 521.99 L 393.59 524.37 L 381.70 530.32 L 379.33 530.32 L 378.14 531.51 L 375.76 531.51 L 374.57 532.69 L 372.19 532.69 L 367.44 535.07 L 363.87 535.07 L 362.68 536.26 L 356.74 536.26 L 355.55 537.45 L 343.66 537.45 L 342.47 536.26 L 343.66 535.07 L 343.66 531.51 L 344.85 530.32 L 344.85 525.56 L 346.04 524.37 L 346.04 519.62 L 347.23 518.43 L 348.41 507.73 L 349.60 506.54 L 349.60 502.97 L 350.79 501.78 L 350.79 497.03 L 351.98 495.84 L 351.98 491.08 L 353.17 489.89 L 353.17 485.14 L 354.36 483.95 L 354.36 479.19 L 355.55 478.01 L 355.55 473.25 L 356.74 472.06 L 357.93 461.36 L 359.11 460.17 L 359.11 456.61 L 360.30 455.42 L 360.30 449.47 L 361.49 448.28 L 361.49 444.72 L 362.68 443.53 L 362.68 438.77 L 363.87 437.58 L 365.06 426.88 L 366.25 425.69 L 366.25 422.13 L 367.44 420.94 L 368.63 410.24 L 369.82 409.05 L 369.82 405.48 L 371.00 404.29 L 372.19 393.59 L 373.38 392.40 L 373.38 388.84 L 374.57 387.65 L 374.57 382.89 L 375.76 381.70 L 375.76 378.14 L 376.95 376.95 L 376.95 373.38 L 378.14 372.19 L 378.14 368.63 L 379.33 367.44 L 380.52 361.49 L 386.46 350.79 L 391.22 346.04 L 406.67 337.71 L 409.05 337.71 L 416.18 334.15 L 422.13 332.96 L 424.50 330.58 L 425.69 330.58 L 426.88 325.83 L 428.07 324.64 L 428.07 309.18 L 424.50 304.43 L 419.75 304.43 L 418.56 303.24 L 411.43 303.24 L 410.24 304.43 L 241.41 304.43 L 235.47 309.18 L 234.28 316.31 L 233.09 317.50 L 233.09 327.01 L 234.28 329.39 L 236.66 331.77 L 241.41 332.96 L 242.60 334.15 L 244.98 334.15 L 252.11 337.71 L 255.68 341.28 L 256.87 341.28 L 266.38 350.79 L 268.76 355.55 L 268.76 359.11 L 269.95 360.30 L 269.95 380.52 L 268.76 381.70 L 268.76 390.03 L 267.57 391.22 L 267.57 397.16 L 266.38 398.35 L 266.38 403.10 L 265.19 404.29 L 265.19 409.05 L 264.00 410.24 L 264.00 414.99 L 262.81 416.18 L 261.62 426.88 L 260.44 428.07 L 260.44 431.64 L 259.25 432.83 L 258.06 443.53 L 256.87 444.72 L 256.87 448.28 L 255.68 449.47 L 255.68 454.23 L 254.49 455.42 L 254.49 460.17 L 253.30 461.36 L 252.11 470.87 L 250.92 472.06 L 250.92 475.63 L 249.74 476.82 L 249.74 481.57 L 248.55 482.76 L 248.55 487.52 L 247.36 488.71 L 247.36 492.27 L 246.17 493.46 L 244.98 504.16 L 243.79 505.35 L 243.79 508.92 L 242.60 510.11 L 242.60 514.86 L 241.41 516.05 L 240.22 525.56 L 239.04 526.75 L 239.04 531.51 L 237.85 532.69 L 236.66 542.21 L 235.47 543.39 L 235.47 546.96 L 234.28 548.15 L 234.28 552.91 L 233.09 554.10 L 233.09 557.66 L 231.90 558.85 L 230.71 569.55 L 229.52 570.74 L 229.52 574.31 L 228.34 575.50 L 228.34 579.06 L 227.15 580.25 L 227.15 585.01 L 225.96 586.20 L 225.96 589.76 L 224.77 590.95 L 224.77 595.71 L 223.58 596.90 L 223.58 600.46 L 222.39 601.65 L 222.39 606.41 L 221.20 607.60 L 221.20 611.16 L 220.01 612.35 L 220.01 617.11 L 218.82 618.30 L 218.82 621.86 L 217.64 623.05 L 217.64 627.81 L 216.45 629.00 L 216.45 632.56 L 215.26 633.75 L 215.26 638.51 L 214.07 639.70 L 214.07 643.26 L 212.88 644.45 L 212.88 649.21 L 211.69 650.40 L 211.69 653.96 L 210.50 655.15 L 210.50 658.72 L 209.31 659.91 L 209.31 664.66 L 208.12 665.85 L 208.12 669.42 L 206.94 670.61 L 206.94 675.36 L 205.75 676.55 L 205.75 680.12 L 204.56 681.31 L 204.56 684.87 L 203.37 686.06 L 202.18 696.76 L 200.99 697.95 L 199.80 707.46 L 198.61 708.65 L 197.42 718.16 L 195.05 722.92 L 193.86 730.05 L 191.48 733.62 L 191.48 736.00 L 187.91 743.13 L 185.54 745.51 L 183.16 750.26 L 173.65 759.78 L 172.46 759.78 L 168.89 763.34 L 165.32 764.53 L 160.57 768.10 L 158.19 768.10 L 153.43 770.48 L 149.87 770.48 L 148.68 771.66 L 145.11 771.66 L 143.92 772.85 L 140.36 772.85 L 135.60 775.23 L 130.85 783.55 L 130.85 787.12 L 129.66 788.31 L 129.66 801.39 L 130.85 803.76 L 133.22 804.95 L 336.53 804.95 L 341.28 801.39 L 342.47 796.63 L 343.66 795.44 L 343.66 791.88 L 344.85 790.69 L 344.85 784.74 L 346.04 783.55 L 344.85 776.42 L 342.47 774.04 L 340.09 774.04 L 335.34 771.66 L 331.77 771.66 L 330.58 770.48 L 327.01 770.48 L 313.94 764.53 L 304.43 755.02 L 304.43 752.64 L 302.05 749.08 L 302.05 744.32 L 300.86 743.13 L 300.86 728.86 L 302.05 727.68 L 302.05 721.73 L 303.24 720.54 L 304.43 709.84 L 305.61 708.65 L 306.80 699.14 L 307.99 697.95 L 307.99 694.39 L 309.18 693.20 L 309.18 688.44 L 310.37 687.25 L 310.37 683.69 L 311.56 682.50 L 311.56 677.74 L 312.75 676.55 L 313.94 665.85 L 315.13 664.66 L 315.13 661.10 L 316.31 659.91 L 317.50 649.21 L 318.69 648.02 L 318.69 644.45 L 319.88 643.26 L 321.07 632.56 L 322.26 631.37 L 322.26 627.81 L 323.45 626.62 L 323.45 621.86 L 324.64 620.67 L 324.64 615.92 L 325.83 614.73 L 325.83 609.97 L 327.01 608.78 L 327.01 604.03 L 328.20 602.84 L 328.20 599.27 L 329.39 598.08 L 329.39 593.33 L 330.58 592.14 L 330.58 588.57 L 331.77 587.38 L 331.77 582.63 L 332.96 581.44 L 332.96 579.06 L 334.15 577.87 L 385.27 577.87 L 386.46 576.68 L 394.78 576.68 L 395.97 575.50 L 401.92 575.50 L 403.10 574.31 L 407.86 574.31 L 409.05 573.12 L 412.62 573.12 L 413.80 571.93 L 417.37 571.93 L 418.56 570.74 L 422.13 570.74 L 426.88 568.36 L 434.02 567.17 L 437.58 564.80 L 443.53 563.61 L 454.23 557.66 L 456.61 557.66 L 458.98 555.28 L 464.93 552.91 L 467.31 550.53 L 475.63 545.77 L 479.19 542.21 L 480.38 542.21 L 486.33 536.26 L 487.52 536.26 L 508.92 514.86 L 508.92 513.67 L 513.67 508.92 L 513.67 507.73 L 520.81 499.41 L 520.81 498.22 L 525.56 492.27 L 526.75 488.71 L 529.13 486.33 L 530.32 482.76 L 532.69 480.38 L 541.02 463.74 L 541.02 461.36 L 544.58 455.42 L 545.77 449.47 L 548.15 445.90 L 548.15 443.53 L 550.53 438.77 L 550.53 435.20 L 551.72 434.02 L 552.91 425.69 L 554.10 424.50 L 554.10 419.75 L 555.28 418.56 L 555.28 413.80 L 556.47 412.62 L 556.47 405.48 L 557.66 404.29 L 557.66 393.59 L 558.85 392.40 L 558.85 349.60 L 557.66 348.41 L 557.66 338.90 L 556.47 337.71 L 556.47 331.77 L 555.28 330.58 L 555.28 325.83 L 554.10 324.64 L 552.91 316.31 L 551.72 315.13 L 549.34 305.61 L 546.96 302.05 L 546.96 299.67 L 538.64 283.03 L 536.26 280.65 L 532.69 273.51 L 525.56 265.19 L 525.56 264.00 L 504.16 242.60 L 502.97 242.60 L 498.22 237.85 L 497.03 237.85 L 493.46 234.28 L 492.27 234.28 Z" fill="black" stroke="none" fill-rule="evenodd"/>
</svg>
